<svg xmlns="http://www.w3.org/2000/svg" viewBox="0 0 512 512" width="100%" height="100%">
  <defs>
    <linearGradient id="shieldGrad" x1="0%" y1="0%" x2="100%" y2="100%">
      <stop offset="0%" stop-color="#4E1686" />
      <stop offset="100%" stop-color="#8CC63F" />
    </linearGradient>
  </defs>
  
  <!-- Base Rounded Rectangle with Modern App-Icon Styling -->
  <rect x="16" y="16" width="480" height="480" rx="110" fill="url(#shieldGrad)" />
  
  <!-- Outer Shield in White -->
  <path d="M256,110 C305,110 360,128 360,128 C360,128 360,245 332,320 C305,395 256,422 256,422 C256,422 207,395 180,320 C152,245 152,128 152,128 C152,128 207,110 256,110 Z" fill="none" stroke="#FFFFFF" stroke-width="26" stroke-linecap="round" stroke-linejoin="round" />
  
  <!-- Stylized "C" Emblem inside the Shield representing "Cover" -->
  <path d="M285,200 C270,185 240,185 220,200 C190,225 190,285 220,310 C240,325 270,325 285,310" fill="none" stroke="#FFFFFF" stroke-width="32" stroke-linecap="round" stroke-linejoin="round" />
  
  <!-- Inner Shield Checkmark for "Secure" -->
  <path d="M235,255 L250,270 L285,230" fill="none" stroke="#FFFFFF" stroke-width="24" stroke-linecap="round" stroke-linejoin="round" />
</svg>
